{
  "source": "C:\\Users\\Peter\\Desktop\\stuff\\MIUN\\quantitative_research\\video_compression\\videos\\BVI-HD\\BVI-HD_CDVL_videos\\ORIG\\KineticFastPainting_1920x1080_60fps.mp4",
  "output": "C:\\Users\\Peter\\Desktop\\stuff\\MIUN\\quantitative_research\\video_compression\\compressed_videos\\BVI-HD\\vp9\\3\\KineticFastPainting_1920x1080_60fps_vp9.webm",
  "codec": "vp9",
  "ok": "Input #0, mov,mp4,m4a,3gp,3g2,mj2, from 'C:\\Users\\Peter\\Desktop\\stuff\\MIUN\\quantitative_research\\video_compression\\videos\\BVI-HD\\BVI-HD_CDVL_videos\\ORIG\\KineticFastPainting_1920x1080_60fps.mp4':\n  Metadata:\n    major_brand     : isom\n    minor_version   : 512\n    compatible_brands: isomiso2avc1mp41\n    encoder         : Lavf54.28.101\n  Duration: 00:00:05.00, start: 0.000000, bitrate: 477980 kb/s\n  Stream #0:0[0x1](und): Video: h264 (High 4:4:4 Predictive) (avc1 / 0x31637661), yuv420p(progressive), 1920x1080, 477974 kb/s, 60 fps, 60 tbr, 60 tbn (default)\n    Metadata:\n      handler_name    : VideoHandler\n      vendor_id       : [0][0][0][0]\n[out#0/webm @ 0000018691259100] Codec AVOption b:a (set bitrate (in bits/s)) has not been used for any stream. The most likely reason is either wrong type (e.g. a video option with no video streams) or that it is a private option of some decoder which was not actually used for any stream.\nStream mapping:\n  Stream #0:0 -> #0:0 (h264 (native) -> vp9 (libvpx-vp9))\nPress [q] to stop, [?] for help\n[libvpx-vp9 @ 0000018691d100c0] v1.15.2-100-g40561f514\nOutput #0, webm, to 'C:\\Users\\Peter\\Desktop\\stuff\\MIUN\\quantitative_research\\video_compression\\compressed_videos\\BVI-HD\\vp9\\3\\KineticFastPainting_1920x1080_60fps_vp9.webm':\n  Metadata:\n    major_brand     : isom\n    minor_version   : 512\n    compatible_brands: isomiso2avc1mp41\n    encoder         : Lavf62.3.100\n  Stream #0:0(und): Video: vp9, yuv420p(tv, progressive), 1920x1080, q=2-31, 3000 kb/s, 60 fps, 1k tbn (default)\n    Metadata:\n      encoder         : Lavc62.11.100 libvpx-vp9\n      handler_name    : VideoHandler\n      vendor_id       : [0][0][0][0]\n    Side data:\n      cpb: bitrate max/min/avg: 0/0/0 buffer size: 3000000 vbv_delay: N/A\nframe=    0 fps=0.0 q=0.0 size=       0KiB time=N/A bitrate=N/A speed=N/A elapsed=0:00:00.53    \nframe=    6 fps=5.3 q=61.0 size=       1KiB time=00:00:00.10 bitrate=  50.6kbits/s speed=0.0891x elapsed=0:00:01.12    \nframe=   11 fps=6.7 q=61.0 size=       1KiB time=00:00:00.18 bitrate=  27.6kbits/s speed=0.111x elapsed=0:00:01.65    \nframe=   15 fps=6.9 q=60.0 size=       1KiB time=00:00:00.25 bitrate=  20.3kbits/s speed=0.114x elapsed=0:00:02.18    \nframe=   19 fps=7.0 q=60.0 size=       1KiB time=00:00:00.31 bitrate=  16.0kbits/s speed=0.117x elapsed=0:00:02.69    \nframe=   24 fps=7.5 q=60.0 size=       1KiB time=00:00:00.40 bitrate=  12.7kbits/s speed=0.124x elapsed=0:00:03.21    \nframe=   28 fps=7.4 q=59.0 size=       1KiB time=00:00:00.46 bitrate=  10.9kbits/s speed=0.124x elapsed=0:00:03.76    \nframe=   33 fps=7.7 q=60.0 size=       1KiB time=00:00:00.55 bitrate=   9.2kbits/s speed=0.128x elapsed=0:00:04.28    \nframe=   37 fps=7.7 q=51.0 size=       1KiB time=00:00:00.61 bitrate=   8.2kbits/s speed=0.128x elapsed=0:00:04.80    \nframe=   42 fps=7.9 q=60.0 size=       1KiB time=00:00:00.70 bitrate=   7.2kbits/s speed=0.131x elapsed=0:00:05.32    \nframe=   46 fps=7.8 q=59.0 size=       1KiB time=00:00:00.76 bitrate=   6.6kbits/s speed=0.131x elapsed=0:00:05.86    \nframe=   50 fps=7.8 q=61.0 size=       1KiB time=00:00:00.83 bitrate=   6.1kbits/s speed=0.13x elapsed=0:00:06.39    \nframe=   54 fps=7.8 q=61.0 size=       1KiB time=00:00:00.90 bitrate=   5.6kbits/s speed=0.13x elapsed=0:00:06.92    \nframe=   58 fps=7.8 q=60.0 size=       1KiB time=00:00:00.96 bitrate=   5.2kbits/s speed=0.13x elapsed=0:00:07.45    \nframe=   62 fps=7.8 q=60.0 size=       1KiB time=00:00:01.03 bitrate=   4.9kbits/s speed=0.13x elapsed=0:00:07.97    \nframe=   66 fps=7.8 q=59.0 size=       1KiB time=00:00:01.10 bitrate=   4.6kbits/s speed=0.13x elapsed=0:00:08.48    \nframe=   71 fps=7.9 q=59.0 size=       1KiB time=00:00:01.18 bitrate=   4.3kbits/s speed=0.131x elapsed=0:00:09.02    \nframe=   75 fps=7.9 q=60.0 size=       1KiB time=00:00:01.25 bitrate=   4.1kbits/s speed=0.131x elapsed=0:00:09.54    \nframe=   78 fps=7.7 q=60.0 size=       1KiB time=00:00:01.30 bitrate=   3.9kbits/s speed=0.129x elapsed=0:00:10.08    \nframe=   83 fps=7.8 q=60.0 size=       1KiB time=00:00:01.38 bitrate=   3.7kbits/s speed=0.131x elapsed=0:00:10.58    \nframe=   87 fps=7.8 q=59.0 size=       1KiB time=00:00:01.45 bitrate=   3.5kbits/s speed=0.13x elapsed=0:00:11.11    \nframe=   91 fps=7.8 q=48.0 size=       1KiB time=00:00:01.51 bitrate=   3.3kbits/s speed=0.13x elapsed=0:00:11.64    \nframe=   96 fps=7.9 q=60.0 size=       1KiB time=00:00:01.60 bitrate=   3.2kbits/s speed=0.132x elapsed=0:00:12.16    \nframe=  100 fps=7.9 q=60.0 size=       1KiB time=00:00:01.66 bitrate=   3.0kbits/s speed=0.131x elapsed=0:00:12.70    \nframe=  104 fps=7.9 q=60.0 size=       1KiB time=00:00:01.73 bitrate=   2.9kbits/s speed=0.131x elapsed=0:00:13.23    \nframe=  108 fps=7.9 q=59.0 size=       1KiB time=00:00:01.80 bitrate=   2.8kbits/s speed=0.131x elapsed=0:00:13.74    \nframe=  113 fps=7.9 q=59.0 size=       1KiB time=00:00:01.88 bitrate=   2.7kbits/s speed=0.132x elapsed=0:00:14.25    \nframe=  117 fps=7.9 q=59.0 size=       1KiB time=00:00:01.95 bitrate=   2.6kbits/s speed=0.132x elapsed=0:00:14.77    \nframe=  121 fps=7.9 q=45.0 size=       1KiB time=00:00:02.01 bitrate=   2.5kbits/s speed=0.132x elapsed=0:00:15.31    \nframe=  125 fps=7.9 q=56.0 size=       1KiB time=00:00:02.08 bitrate=   2.4kbits/s speed=0.131x elapsed=0:00:15.86    \nframe=  128 fps=7.8 q=57.0 size=       1KiB time=00:00:02.13 bitrate=   2.4kbits/s speed=0.13x elapsed=0:00:16.40    \nframe=  131 fps=7.7 q=58.0 size=     768KiB time=00:00:02.16 bitrate=2903.7kbits/s speed=0.128x elapsed=0:00:16.98    \nframe=  133 fps=7.6 q=59.0 size=     768KiB time=00:00:02.21 bitrate=2838.3kbits/s speed=0.126x elapsed=0:00:17.56    \nframe=  134 fps=7.4 q=59.0 size=     768KiB time=00:00:02.23 bitrate=2817.1kbits/s speed=0.123x elapsed=0:00:18.18    \nframe=  137 fps=7.3 q=60.0 size=     768KiB time=00:00:02.28 bitrate=2755.4kbits/s speed=0.122x elapsed=0:00:18.75    \nframe=  140 fps=7.2 q=60.0 size=     768KiB time=00:00:02.33 bitrate=2696.3kbits/s speed=0.12x elapsed=0:00:19.36    \nframe=  143 fps=7.2 q=60.0 size=     768KiB time=00:00:02.38 bitrate=2639.8kbits/s speed=0.12x elapsed=0:00:19.91    \nframe=  146 fps=7.1 q=60.0 size=     768KiB time=00:00:02.43 bitrate=2585.5kbits/s speed=0.119x elapsed=0:00:20.47    \nframe=  149 fps=7.1 q=60.0 size=     768KiB time=00:00:02.48 bitrate=2533.5kbits/s speed=0.118x elapsed=0:00:21.05    \nframe=  152 fps=7.0 q=60.0 size=     768KiB time=00:00:02.53 bitrate=2483.5kbits/s speed=0.117x elapsed=0:00:21.61    \nframe=  155 fps=7.0 q=59.0 size=     768KiB time=00:00:02.58 bitrate=2435.4kbits/s speed=0.117x elapsed=0:00:22.16    \nframe=  158 fps=7.0 q=60.0 size=     768KiB time=00:00:02.63 bitrate=2389.2kbits/s speed=0.116x elapsed=0:00:22.71    \nframe=  161 fps=6.9 q=59.0 size=     768KiB time=00:00:02.68 bitrate=2344.6kbits/s speed=0.115x elapsed=0:00:23.24    \nframe=  163 fps=6.8 q=60.0 size=     768KiB time=00:00:02.71 bitrate=2315.9kbits/s speed=0.114x elapsed=0:00:23.80    \nframe=  165 fps=6.8 q=48.0 size=     768KiB time=00:00:02.75 bitrate=2287.8kbits/s speed=0.113x elapsed=0:00:24.32    \nframe=  169 fps=6.8 q=59.0 size=     768KiB time=00:00:02.80 bitrate=2246.9kbits/s speed=0.113x elapsed=0:00:24.85    \nframe=  171 fps=6.7 q=47.0 size=     768KiB time=00:00:02.85 bitrate=2207.5kbits/s speed=0.112x elapsed=0:00:25.41    \nframe=  175 fps=6.7 q=60.0 size=     768KiB time=00:00:02.91 bitrate=2157.1kbits/s speed=0.112x elapsed=0:00:25.97    \nframe=  176 fps=6.6 q=60.0 size=     768KiB time=00:00:02.93 bitrate=2144.8kbits/s speed=0.111x elapsed=0:00:26.54    \nframe=  179 fps=6.6 q=59.0 size=     768KiB time=00:00:02.98 bitrate=2108.9kbits/s speed=0.11x elapsed=0:00:27.11    \nframe=  182 fps=6.6 q=59.0 size=     768KiB time=00:00:03.03 bitrate=2074.1kbits/s speed=0.11x elapsed=0:00:27.69    \nframe=  186 fps=6.6 q=59.0 size=     768KiB time=00:00:03.10 bitrate=2029.5kbits/s speed=0.11x elapsed=0:00:28.22    \nframe=  188 fps=6.5 q=59.0 size=     768KiB time=00:00:03.13 bitrate=2007.9kbits/s speed=0.109x elapsed=0:00:28.76    \nframe=  191 fps=6.5 q=58.0 size=     768KiB time=00:00:03.18 bitrate=1976.4kbits/s speed=0.109x elapsed=0:00:29.33    \nframe=  194 fps=6.5 q=59.0 size=     768KiB time=00:00:03.23 bitrate=1945.8kbits/s speed=0.108x elapsed=0:00:29.89    \nframe=  197 fps=6.5 q=59.0 size=     768KiB time=00:00:03.28 bitrate=1916.2kbits/s speed=0.108x elapsed=0:00:30.46    \nframe=  200 fps=6.5 q=60.0 size=     768KiB time=00:00:03.33 bitrate=1887.4kbits/s speed=0.108x elapsed=0:00:30.98    \nframe=  203 fps=6.4 q=60.0 size=     768KiB time=00:00:03.36 bitrate=1868.7kbits/s speed=0.107x elapsed=0:00:31.57    \nframe=  206 fps=6.4 q=60.0 size=     768KiB time=00:00:03.41 bitrate=1841.4kbits/s speed=0.106x elapsed=0:00:32.18    \nframe=  209 fps=6.4 q=59.0 size=     768KiB time=00:00:03.48 bitrate=1806.2kbits/s speed=0.106x elapsed=0:00:32.77    \nframe=  212 fps=6.4 q=59.0 size=     768KiB time=00:00:03.53 bitrate=1780.6kbits/s speed=0.106x elapsed=0:00:33.36    \nframe=  215 fps=6.3 q=58.0 size=     768KiB time=00:00:03.58 bitrate=1755.8kbits/s speed=0.105x elapsed=0:00:33.98    \nframe=  217 fps=6.3 q=58.0 size=     768KiB time=00:00:03.61 bitrate=1739.6kbits/s speed=0.105x elapsed=0:00:34.49    \nframe=  220 fps=6.3 q=59.0 size=     768KiB time=00:00:03.66 bitrate=1715.9kbits/s speed=0.105x elapsed=0:00:35.02    \nframe=  224 fps=6.3 q=59.0 size=     768KiB time=00:00:03.73 bitrate=1685.2kbits/s speed=0.105x elapsed=0:00:35.58    \nframe=  226 fps=6.3 q=59.0 size=     768KiB time=00:00:03.76 bitrate=1670.3kbits/s speed=0.104x elapsed=0:00:36.15    \nframe=  228 fps=6.2 q=58.0 size=     768KiB time=00:00:03.80 bitrate=1655.6kbits/s speed=0.104x elapsed=0:00:36.67    \nframe=  230 fps=6.2 q=59.0 size=     768KiB time=00:00:03.83 bitrate=1641.2kbits/s speed=0.103x elapsed=0:00:37.19    \nframe=  234 fps=6.2 q=59.0 size=     768KiB time=00:00:03.90 bitrate=1613.2kbits/s speed=0.103x elapsed=0:00:37.71    \nframe=  237 fps=6.2 q=46.0 size=     768KiB time=00:00:03.93 bitrate=1599.5kbits/s speed=0.103x elapsed=0:00:38.24    \nframe=  240 fps=6.2 q=59.0 size=     768KiB time=00:00:04.00 bitrate=1572.9kbits/s speed=0.103x elapsed=0:00:38.87    \nframe=  242 fps=6.1 q=60.0 size=     768KiB time=00:00:04.03 bitrate=1559.9kbits/s speed=0.102x elapsed=0:00:39.47    \nframe=  245 fps=6.1 q=60.0 size=     768KiB time=00:00:04.08 bitrate=1540.8kbits/s speed=0.102x elapsed=0:00:40.00    \nframe=  248 fps=6.1 q=60.0 size=     768KiB time=00:00:04.13 bitrate=1522.1kbits/s speed=0.102x elapsed=0:00:40.53    \nframe=  251 fps=6.1 q=58.0 size=     768KiB time=00:00:04.16 bitrate=1509.9kbits/s speed=0.101x elapsed=0:00:41.14    \nframe=  253 fps=6.1 q=59.0 size=     768KiB time=00:00:04.21 bitrate=1492.0kbits/s speed=0.101x elapsed=0:00:41.69    \nframe=  256 fps=6.1 q=60.0 size=     768KiB time=00:00:04.26 bitrate=1474.6kbits/s speed=0.101x elapsed=0:00:42.21    \nframe=  260 fps=6.1 q=60.0 size=    1536KiB time=00:00:04.33 bitrate=2903.7kbits/s speed=0.101x elapsed=0:00:42.75    \nframe=  262 fps=6.0 q=60.0 size=    1536KiB time=00:00:04.36 bitrate=2881.6kbits/s speed=0.101x elapsed=0:00:43.33    \nframe=  265 fps=6.0 q=60.0 size=    1536KiB time=00:00:04.41 bitrate=2849.0kbits/s speed=0.101x elapsed=0:00:43.87    \nframe=  268 fps=6.0 q=60.0 size=    1536KiB time=00:00:04.46 bitrate=2817.1kbits/s speed=0.101x elapsed=0:00:44.44    \nframe=  272 fps=6.0 q=60.0 size=    1536KiB time=00:00:04.53 bitrate=2775.6kbits/s speed=0.101x elapsed=0:00:44.98    \nframe=  274 fps=6.0 q=60.0 size=    1536KiB time=00:00:04.56 bitrate=2755.4kbits/s speed= 0.1x elapsed=0:00:45.52    \nframe=  276 fps=6.0 q=60.0 size=    1536KiB time=00:00:04.60 bitrate=2735.4kbits/s speed=0.0998x elapsed=0:00:46.08    \nframe=  276 fps=5.9 q=60.0 size=    1536KiB time=00:00:04.60 bitrate=2735.4kbits/s speed=0.0985x elapsed=0:00:46.68    \nframe=  276 fps=5.8 q=60.0 size=    1536KiB time=00:00:04.60 bitrate=2735.4kbits/s speed=0.0974x elapsed=0:00:47.21    \nframe=  276 fps=5.8 q=60.0 size=    1536KiB time=00:00:04.60 bitrate=2735.4kbits/s speed=0.0963x elapsed=0:00:47.75    \nframe=  276 fps=5.7 q=60.0 size=    1536KiB time=00:00:04.60 bitrate=2735.4kbits/s speed=0.0952x elapsed=0:00:48.29    \nframe=  276 fps=5.6 q=60.0 size=    1536KiB time=00:00:04.60 bitrate=2735.4kbits/s speed=0.0941x elapsed=0:00:48.87    \nframe=  276 fps=5.6 q=60.0 size=    1536KiB time=00:00:04.60 bitrate=2735.4kbits/s speed=0.0931x elapsed=0:00:49.39    \nframe=  276 fps=5.5 q=60.0 size=    1536KiB time=00:00:04.60 bitrate=2735.4kbits/s speed=0.0922x elapsed=0:00:49.91    \n[out#0/webm @ 0000018691259100] video:1896KiB audio:0KiB subtitle:0KiB other streams:0KiB global headers:0KiB muxing overhead: 0.147603%\nframe=  300 fps=5.9 q=60.0 Lsize=    1899KiB time=00:00:05.00 bitrate=3111.3kbits/s speed=0.0991x elapsed=0:00:50.43    \n",
  "seconds": 50.80435037612915,
  "probe_out": {}
}